<svg width="30" height="30" viewBox="0 0 30 30" fill="none" xmlns="http://www.w3.org/2000/svg">
<path fill-rule="evenodd" clip-rule="evenodd" d="M8.13742 14.569L7.37795 10.387L6.42253 5.1235C6.37069 4.83896 6.56232 4.56644 6.85056 4.51559L26.6168 1.00825C26.9047 0.9574 27.1799 1.14684 27.2314 1.431L27.7796 4.44882" fill="#84EB9C"/>
<path fill-rule="evenodd" clip-rule="evenodd" d="M28.7523 15.093H8.66998C8.37781 15.093 8.14062 14.8586 8.14062 14.569V4.9724C8.14062 4.68359 8.37781 4.44873 8.66998 4.44873H28.7523C29.0449 4.44873 29.2825 4.68359 29.2825 4.9724V14.569C29.2825 14.8586 29.0449 15.093 28.7523 15.093Z" fill="#84EB9C"/>
<path fill-rule="evenodd" clip-rule="evenodd" d="M10.2852 7.64757V12.1957C10.9948 12.1957 11.5697 12.6976 11.5697 13.3164C11.5697 13.3366 11.5642 13.3556 11.563 13.3762H25.8292C25.828 13.3556 25.8221 13.3366 25.8221 13.3164C25.8221 12.6976 26.3974 12.1957 27.107 12.1957C27.1223 12.1957 27.1368 12.1992 27.1522 12.1999V7.6433C27.1368 7.64369 27.1223 7.64757 27.107 7.64757C26.3974 7.64757 25.8221 7.14564 25.8221 6.52686H11.5697C11.5697 7.14564 10.9948 7.64757 10.2852 7.64757Z" fill="#84EB9C"/>
<path fill-rule="evenodd" clip-rule="evenodd" d="M4.51562 23.7539L7.903 20.2663C7.903 20.2663 9.34223 18.4302 11.5472 18.4302H18.7202C18.7202 18.4302 19.6775 20.79 17.2534 21.8533C17.2534 21.8533 20.7123 21.9131 23.601 20.2679C23.601 20.2679 26.9974 18.0094 29.2821 20.2978L23.0296 24.9627C23.0296 24.9627 21.0567 26.3548 17.4989 26.6541C17.1839 26.6801 16.869 26.7057 16.5552 26.7441L11.6874 27.34C10.2325 27.5182 8.76772 27.6079 7.30179 27.6079H4.51562" fill="#F5D9BA"/>
<path fill-rule="evenodd" clip-rule="evenodd" d="M1 22.3052H3.19163C3.92164 22.3052 4.51383 22.9139 4.51383 23.665V27.4658C4.51383 28.217 3.92164 28.8257 3.19163 28.8257H1" fill="#ED6262"/>
<path d="M1 22.3053H3.19163C3.92164 22.3053 4.51383 22.914 4.51383 23.6652V27.466C4.51383 28.2171 3.92164 28.8258 3.19163 28.8258H1M4.5139 23.7538L7.90128 20.2663C7.90128 20.2663 9.34051 18.4301 11.5455 18.4301H18.7184C18.7184 18.4301 19.6758 20.79 17.2517 21.8532C17.2517 21.8532 20.7106 21.913 23.5992 20.2678C23.5992 20.2678 26.9956 18.0093 29.2803 20.2977L23.0279 24.9627C23.0279 24.9627 21.055 26.3547 17.4972 26.654C17.1822 26.68 16.8673 26.7057 16.5535 26.7441L11.6857 27.34C10.2307 27.5182 8.766 27.6078 7.30007 27.6078H4.5139M11.9862 21.8133L17.2514 21.8536M28.7505 15.093H8.66814C8.37597 15.093 8.13878 14.8586 8.13878 14.569V4.9724C8.13878 4.68359 8.37597 4.44873 8.66814 4.44873H28.7505C29.0431 4.44873 29.2806 4.68359 29.2806 4.9724V14.569C29.2806 14.8586 29.0431 15.093 28.7505 15.093Z" stroke="#1B325E" stroke-width="1.09804" stroke-linecap="round" stroke-linejoin="round"/>
<path fill-rule="evenodd" clip-rule="evenodd" d="M10.2852 7.64757V12.1957C10.9948 12.1957 11.5697 12.6976 11.5697 13.3164C11.5697 13.3366 11.5642 13.3556 11.563 13.3762H25.8292C25.828 13.3556 25.8221 13.3366 25.8221 13.3164C25.8221 12.6976 26.3974 12.1957 27.107 12.1957C27.1223 12.1957 27.1368 12.1992 27.1522 12.1999V7.6433C27.1368 7.64369 27.1223 7.64757 27.107 7.64757C26.3974 7.64757 25.8221 7.14564 25.8221 6.52686H11.5697C11.5697 7.14564 10.9948 7.64757 10.2852 7.64757V7.64757Z" stroke="#1B325E" stroke-width="1.09804" stroke-linecap="round" stroke-linejoin="round"/>
<path fill-rule="evenodd" clip-rule="evenodd" d="M14.4705 9.95128C14.4705 10.4074 14.0967 10.7766 13.6356 10.7766C13.1746 10.7766 12.8008 10.4074 12.8008 9.95128C12.8008 9.49554 13.1746 9.12598 13.6356 9.12598C14.0967 9.12598 14.4705 9.49554 14.4705 9.95128ZM24.4888 9.95128C24.4888 10.4074 24.1154 10.7766 23.6539 10.7766C23.1929 10.7766 22.8191 10.4074 22.8191 9.95128C22.8191 9.49554 23.1929 9.12598 23.6539 9.12598C24.1154 9.12598 24.4888 9.49554 24.4888 9.95128Z" fill="#052F5F"/>
<path d="M17.25 7.82764H19.9462M17.25 9.11431H19.9462M18.0473 7.82764C18.678 7.82764 19.1892 8.4437 19.1892 9.20379C19.1892 9.96387 18.678 10.3594 18.0473 10.3594H17.2501L19.2148 12.2853" stroke="#1B325E" stroke-width="1.09804" stroke-linecap="round" stroke-linejoin="round"/>
<path d="M8.13742 14.5691L7.37795 10.387L6.42253 5.1235C6.37069 4.83896 6.56232 4.56644 6.85056 4.51559L26.6168 1.00825C26.9047 0.9574 27.1799 1.14684 27.2314 1.431L27.7796 4.44882" stroke="#1B325E" stroke-width="1.09804" stroke-linecap="round" stroke-linejoin="round"/>
</svg>
