<svg width="32" height="30" viewBox="0 0 32 30" fill="none" xmlns="http://www.w3.org/2000/svg">
<path fill-rule="evenodd" clip-rule="evenodd" d="M4.64844 23.2819L8.1658 19.6187C8.1658 19.6187 9.65996 17.6904 11.9494 17.6904H19.3977C19.3977 17.6904 20.3922 20.1693 17.8742 21.2856C17.8742 21.2856 21.4659 21.3487 24.465 19.6206C24.465 19.6206 27.9921 17.2485 30.3643 19.6515L23.8718 24.5519C23.8718 24.5519 21.8237 26.0138 18.1296 26.328C17.8022 26.3554 17.4753 26.3823 17.1493 26.4229L12.0952 27.0489C10.5844 27.2358 9.06337 27.3298 7.54132 27.3298H4.64844" fill="#F5D9BA"/>
<path fill-rule="evenodd" clip-rule="evenodd" d="M1 21.7603H3.27525C4.03383 21.7603 4.64852 22.3999 4.64852 23.1888V27.1809C4.64852 27.9698 4.03383 28.6095 3.27525 28.6095H1" fill="#ED6262"/>
<path d="M1 21.7601H3.27525C4.03383 21.7601 4.64852 22.3998 4.64852 23.1887V27.1808C4.64852 27.9697 4.03383 28.6094 3.27525 28.6094H1M4.64857 23.2819L8.16594 19.6187C8.16594 19.6187 9.66009 17.6904 11.9495 17.6904H19.3978C19.3978 17.6904 20.3923 20.1693 17.8743 21.2856C17.8743 21.2856 21.466 21.3487 24.4651 19.6206C24.4651 19.6206 27.9923 17.2485 30.3644 19.6515L23.872 24.5519C23.872 24.5519 21.8238 26.0138 18.1298 26.328C17.8023 26.3554 17.4754 26.3823 17.1495 26.4229L12.0954 27.0489C10.5846 27.2358 9.06351 27.3298 7.54145 27.3298H4.64857M12.4074 21.2435L17.8745 21.2856" stroke="#1B325E" stroke-width="1.33333" stroke-linecap="round" stroke-linejoin="round"/>
<path fill-rule="evenodd" clip-rule="evenodd" d="M22.8197 7.44891C22.8197 10.0481 21.282 12.2877 19.0674 13.3086C18.2472 13.6869 17.3334 13.8978 16.3708 13.8978C12.8094 13.8978 9.92188 11.0103 9.92188 7.44891C9.92188 3.8875 12.8094 1 16.3708 1C17.3266 1 18.234 1.208 19.0503 1.58141C21.2741 2.59889 22.8197 4.84331 22.8197 7.44891Z" fill="#FFD032"/>
<path d="M13.6668 13.3058C11.4557 12.2829 9.92188 10.0453 9.92188 7.44904C9.92188 4.85322 11.4557 2.61517 13.6668 1.5928M19.0498 1.58154C21.2737 2.59902 22.8192 4.84344 22.8192 7.44904C22.8192 10.0483 21.282 12.2878 19.0669 13.3087M14.723 4.69431H18.0172M14.723 6.2844H18.0172M15.6976 4.69431C16.4679 4.69431 17.0929 5.45583 17.0929 6.39549C17.0929 7.33466 16.4679 7.82456 15.6976 7.82456H14.7231L17.1232 10.2041M19.067 13.3086L21.8453 13.3072M13.6668 1.593H11.2105" stroke="#1B325E" stroke-width="1.33333" stroke-linecap="round" stroke-linejoin="round"/>
</svg>
