<svg width="33" height="33" viewBox="0 0 33 33" fill="none" xmlns="http://www.w3.org/2000/svg">
<path fill-rule="evenodd" clip-rule="evenodd" d="M4.85938 26.4891L8.57275 22.5665C8.57275 22.5665 10.15 20.5025 12.5711 20.499L20.4467 20.4868C20.4467 20.4868 21.5027 23.1359 18.8427 24.334C18.8427 24.334 22.6402 24.3951 25.8094 22.5425C25.8094 22.5425 29.5353 20.0002 32.0478 22.5665L25.1898 27.8167C25.1898 27.8167 23.0261 29.3833 19.1196 29.7251C18.7742 29.7552 18.4284 29.7844 18.0838 29.8275L12.7397 30.5055C11.1426 30.7078 9.53472 30.8107 7.92468 30.8129L4.86584 30.8177" fill="#F5D9BA"/>
<path d="M4.85938 26.4891L8.57275 22.5665C8.57275 22.5665 10.15 20.5025 12.5711 20.499L20.4467 20.4868C20.4467 20.4868 21.5027 23.1359 18.8427 24.334C18.8427 24.334 22.6402 24.3951 25.8094 22.5425C25.8094 22.5425 29.5353 20.0002 32.0478 22.5665L25.1898 27.8167C25.1898 27.8167 23.0261 29.3833 19.1196 29.7251C18.7742 29.7552 18.4284 29.7844 18.0838 29.8275L12.7397 30.5055C11.1426 30.7078 9.53472 30.8107 7.92468 30.8129L4.86584 30.8177" stroke="#1B325E" stroke-width="1.09804" stroke-linecap="round" stroke-linejoin="round"/>
<path fill-rule="evenodd" clip-rule="evenodd" d="M1 24.8682L3.40645 24.8647C4.20802 24.8634 4.85911 25.5466 4.86041 26.3899L4.86688 30.6582C4.86817 31.5023 4.21923 32.1868 3.4168 32.1881L1.01078 32.192" fill="#ED6262"/>
<path d="M1 24.8682L3.40645 24.8647C4.20802 24.8634 4.85911 25.5466 4.86041 26.3899L4.86688 30.6582C4.86817 31.5023 4.21923 32.1868 3.4168 32.1881L1.01078 32.192M4.86088 26.4891L8.57425 22.5665C8.57425 22.5665 10.1515 20.5025 12.5726 20.499L20.4483 20.4868C20.4483 20.4868 21.5042 23.1359 18.8442 24.334C18.8442 24.334 22.6417 24.3951 25.8109 22.5425C25.8109 22.5425 29.5368 20.0002 32.0493 22.5665L25.1913 27.8167C25.1913 27.8167 23.0276 29.3833 19.1211 29.7251C18.7757 29.7552 18.4299 29.7844 18.0854 29.8275L12.7412 30.5055C11.1441 30.7078 9.53623 30.8107 7.92618 30.8129L4.86735 30.8177M13.1621 24.3535L18.9693 24.3264" stroke="#1B325E" stroke-width="1.09804" stroke-linecap="round" stroke-linejoin="round"/>
<path fill-rule="evenodd" clip-rule="evenodd" d="M22.6784 15.2673H9.30306C7.96681 15.2673 6.88281 14.1712 6.88281 12.8201V6.01163C6.88281 4.66005 7.96681 3.56396 9.30306 3.56396H22.6784C24.0155 3.56396 25.0991 4.66005 25.0991 6.01163V12.8201C25.0991 14.1712 24.0155 15.2673 22.6784 15.2673Z" fill="#E0B688"/>
<path fill-rule="evenodd" clip-rule="evenodd" d="M12.5898 3.26062V1.64789C12.5898 1.28994 12.8766 1 13.2297 1H18.7282C19.0822 1 19.3689 1.28994 19.3689 1.64789V3.2894" fill="white"/>
<path fill-rule="evenodd" clip-rule="evenodd" d="M22.6784 15.2673H9.30306C7.96681 15.2673 6.88281 14.1712 6.88281 12.8201V6.01163C6.88281 4.66005 7.96681 3.56396 9.30306 3.56396H22.6784C24.0155 3.56396 25.0991 4.66005 25.0991 6.01163V12.8201C25.0991 14.1712 24.0155 15.2673 22.6784 15.2673V15.2673Z" stroke="#1B325E" stroke-width="1.09804" stroke-linecap="round" stroke-linejoin="round"/>
<path d="M22.7393 6.44875C20.9623 8.02836 18.5714 8.99626 15.9416 8.99626C13.2696 8.99626 10.8437 7.99696 9.05859 6.37158" stroke="#1B325E" stroke-width="1.09804" stroke-linecap="round" stroke-linejoin="round"/>
<path fill-rule="evenodd" clip-rule="evenodd" d="M16.5117 10.5282H15.5837C15.3996 10.5282 15.25 10.3769 15.25 10.1912V7.74132C15.25 7.55515 15.3996 7.4043 15.5837 7.4043H16.5117C16.6962 7.4043 16.8454 7.55515 16.8454 7.74132V10.1912C16.8454 10.3769 16.6962 10.5282 16.5117 10.5282Z" fill="white"/>
<path d="M12.5898 2.47366V1.64745C12.5898 1.28994 12.8766 1 13.2297 1H18.7282C19.0822 1 19.3689 1.28994 19.3689 1.64745V3.2894M16.5118 10.5281H15.5839C15.3998 10.5281 15.2501 10.3768 15.2501 10.191V7.74119C15.2501 7.55502 15.3998 7.40417 15.5839 7.40417H16.5118C16.6963 7.40417 16.8455 7.55502 16.8455 7.74119V10.191C16.8455 10.3768 16.6963 10.5281 16.5118 10.5281V10.5281Z" stroke="#1B325E" stroke-width="1.09804" stroke-linecap="round" stroke-linejoin="round"/>
</svg>
