<svg width="34" height="35" viewBox="0 0 34 35" fill="none" xmlns="http://www.w3.org/2000/svg">
<path fill-rule="evenodd" clip-rule="evenodd" d="M3.97579 16.2325L1.85582 16.2282C1.07769 16.2266 0.705429 15.2768 1.27662 14.7516L15.1239 2.01564C16.1682 0.977033 17.8642 0.986249 18.8967 2.03624L32.7232 14.757C33.2955 15.2828 32.9211 16.2331 32.1424 16.2331H29.2955L29.3216 19.0968L29.3862 32.6448C29.3904 33.1294 28.831 33.5246 28.1382 33.5246H5.22378C4.53472 33.5246 3.97579 33.1332 3.97579 32.6507V16.2325Z" fill="#F5D9BA"/>
<path fill-rule="evenodd" clip-rule="evenodd" d="M29.3086 11.7596V1H23.2266V6.19629L29.3086 11.7596Z" fill="#DEB07D"/>
<path d="M23.2266 3.70873V1H29.3087V8.34343M3.97579 16.2324L1.85582 16.2281C1.07769 16.2265 0.705429 15.2768 1.27662 14.7515L15.1239 2.01557C16.1682 0.976962 17.8642 0.986177 18.8967 2.03617L32.7232 14.7569C33.2955 15.2827 32.9211 16.233 32.1424 16.233H29.2955L29.3216 19.0967L29.3862 32.6447C29.3904 33.1293 28.831 33.5245 28.1382 33.5245H5.22378C4.53472 33.5245 3.97579 33.1331 3.97579 32.6507V16.2324Z" stroke="#1B325E" stroke-width="1.33333" stroke-linecap="round" stroke-linejoin="round"/>
<path fill-rule="evenodd" clip-rule="evenodd" d="M24.502 21.1349C24.502 24.1418 22.7137 26.7334 20.1377 27.9146C19.1831 28.3521 18.1207 28.5965 17.0012 28.5965C12.8584 28.5965 9.5 25.2558 9.5 21.1349C9.5 17.0141 12.8584 13.6733 17.0012 13.6733C18.1132 13.6733 19.1682 13.914 20.1175 14.346C22.7047 15.5229 24.502 18.1199 24.502 21.1349Z" fill="#FFD032"/>
<path d="M13.8562 27.9115C11.2845 26.7281 9.5 24.1392 9.5 21.1356C9.5 18.1314 11.2845 15.5419 13.8562 14.3591M20.1176 14.3462C22.7048 15.523 24.5021 18.1206 24.5021 21.1351C24.5021 24.1419 22.7139 26.7336 20.1379 27.9153M15.0848 17.9478H18.9173M15.0848 19.7878H18.9173M16.2182 17.9478C17.1147 17.9478 17.8416 18.8286 17.8416 19.916C17.8416 21.0029 17.1147 21.5693 16.2182 21.5693H15.0848L17.8768 24.3231M20.1379 27.9152L23.3693 27.9136M13.8562 14.3591H10.9997" stroke="#1B325E" stroke-width="1.33333" stroke-linecap="round" stroke-linejoin="round"/>
</svg>
